<svg width="95" height="163" viewBox="0 0 95 163" fill="none" xmlns="http://www.w3.org/2000/svg">
<mask id="path-1-outside-1" maskUnits="userSpaceOnUse" x="0" y="0" width="95" height="163" fill="black">
<rect fill="white" width="95" height="163"/>
<path fill-rule="evenodd" clip-rule="evenodd" d="M39.429 79.4631L31.7079 113.881H62.8871L55.1602 79.4376C71.4409 83.0132 83.6404 97.5342 83.6404 114.882C83.6404 134.91 67.3803 151.17 47.3522 151.17C27.3242 151.17 11.064 134.91 11.064 114.882C11.064 97.5752 23.206 83.0818 39.429 79.4631ZM41.1091 60.9625L31.5797 73.421C14.8784 79.7855 3 95.9578 3 114.882C3 139.361 22.8738 159.234 47.3522 159.234C71.8306 159.234 91.7044 139.361 91.7044 114.882C91.7044 95.8992 79.7523 79.6854 62.9695 73.3621L53.4853 60.9629L58.7536 57.4792L65.022 59.0787L68.4656 49.3389L47.2975 3L26.1294 49.3389L29.573 59.0787L35.8413 57.4792L41.1091 60.9625ZM50.3707 56.8909L47.2971 52.8726L44.2231 56.8915C43.4363 56.1088 42.9497 55.0272 42.9497 53.8332C42.9497 51.447 44.8979 49.5088 47.2963 49.5088C49.696 49.5088 51.6441 51.447 51.6441 53.8332C51.6441 55.0264 51.1575 56.1077 50.3707 56.8909ZM62.1949 49.2694L55.9827 53.4364C55.844 50.4015 54.132 47.7725 51.6384 46.3394L47.2986 36.4559L42.9589 46.3371C40.4641 47.7702 38.7497 50.3992 38.6111 53.4353L32.4 49.2694L47.2986 15.541L62.1949 49.2694Z"/>
</mask>
<path fill-rule="evenodd" clip-rule="evenodd" d="M39.429 79.4631L31.7079 113.881H62.8871L55.1602 79.4376C71.4409 83.0132 83.6404 97.5342 83.6404 114.882C83.6404 134.91 67.3803 151.17 47.3522 151.17C27.3242 151.17 11.064 134.91 11.064 114.882C11.064 97.5752 23.206 83.0818 39.429 79.4631ZM41.1091 60.9625L31.5797 73.421C14.8784 79.7855 3 95.9578 3 114.882C3 139.361 22.8738 159.234 47.3522 159.234C71.8306 159.234 91.7044 139.361 91.7044 114.882C91.7044 95.8992 79.7523 79.6854 62.9695 73.3621L53.4853 60.9629L58.7536 57.4792L65.022 59.0787L68.4656 49.3389L47.2975 3L26.1294 49.3389L29.573 59.0787L35.8413 57.4792L41.1091 60.9625ZM50.3707 56.8909L47.2971 52.8726L44.2231 56.8915C43.4363 56.1088 42.9497 55.0272 42.9497 53.8332C42.9497 51.447 44.8979 49.5088 47.2963 49.5088C49.696 49.5088 51.6441 51.447 51.6441 53.8332C51.6441 55.0264 51.1575 56.1077 50.3707 56.8909ZM62.1949 49.2694L55.9827 53.4364C55.844 50.4015 54.132 47.7725 51.6384 46.3394L47.2986 36.4559L42.9589 46.3371C40.4641 47.7702 38.7497 50.3992 38.6111 53.4353L32.4 49.2694L47.2986 15.541L62.1949 49.2694Z" fill="#FFC107"/>
<path d="M31.7079 113.881L28.7806 113.224C28.5812 114.113 28.7965 115.044 29.3658 115.755C29.9352 116.467 30.7968 116.881 31.7079 116.881V113.881ZM39.429 79.4631L42.3562 80.1197C42.5811 79.1175 42.2775 78.0698 41.5516 77.343C40.8257 76.6162 39.7784 76.3114 38.7759 76.535L39.429 79.4631ZM62.8871 113.881V116.881C63.7981 116.881 64.6598 116.467 65.2291 115.755C65.7984 115.044 66.0137 114.113 65.8143 113.224L62.8871 113.881ZM55.1602 79.4376L55.8038 76.5074C54.8022 76.2874 53.7576 76.5943 53.0341 77.321C52.3107 78.0477 52.0085 79.0937 52.233 80.0942L55.1602 79.4376ZM31.5797 73.421L32.648 76.2243C33.1688 76.0258 33.624 75.6862 33.9625 75.2436L31.5797 73.421ZM41.1091 60.9625L43.492 62.7852C43.9971 62.1248 44.2055 61.2844 44.0675 60.4645C43.9294 59.6446 43.4573 58.9188 42.7638 58.4602L41.1091 60.9625ZM62.9695 73.3621L60.5867 75.1848C60.9276 75.6305 61.3867 75.9716 61.9118 76.1695L62.9695 73.3621ZM53.4853 60.9629L51.8306 58.4605C51.1371 58.9191 50.665 59.6449 50.527 60.4648C50.3889 61.2847 50.5973 62.1251 51.1025 62.7855L53.4853 60.9629ZM58.7536 57.4792L59.4954 54.5723C58.6753 54.3631 57.8049 54.51 57.0989 54.9768L58.7536 57.4792ZM65.022 59.0787L64.2802 61.9856C65.7844 62.3694 67.3329 61.5423 67.8504 60.0787L65.022 59.0787ZM68.4656 49.3389L71.294 50.3389C71.5533 49.6055 71.5176 48.8 71.1943 48.0924L68.4656 49.3389ZM47.2975 3L50.0262 1.75347C49.5383 0.685256 48.4719 -5.999e-08 47.2975 0C46.1231 5.999e-08 45.0567 0.685256 44.5687 1.75347L47.2975 3ZM26.1294 49.3389L23.4006 48.0924C23.0773 48.8 23.0416 49.6055 23.3009 50.3389L26.1294 49.3389ZM29.573 59.0787L26.7445 60.0787C27.262 61.5423 28.8105 62.3694 30.3147 61.9856L29.573 59.0787ZM35.8413 57.4792L37.496 54.9768C36.79 54.51 35.9197 54.3631 35.0996 54.5723L35.8413 57.4792ZM47.2971 52.8726L49.68 51.05C49.1123 50.3079 48.2314 49.8726 47.2971 49.8726C46.3628 49.8726 45.4819 50.3079 44.9142 51.05L47.2971 52.8726ZM50.3707 56.8909L47.9878 58.7136C48.5125 59.3994 49.3072 59.826 50.1687 59.8841C51.0303 59.9422 51.8751 59.6263 52.4871 59.0171L50.3707 56.8909ZM44.2231 56.8915L42.1072 59.0183C42.7193 59.6272 43.564 59.9429 44.4254 59.8847C45.2868 59.8264 46.0814 59.3999 46.6059 58.7141L44.2231 56.8915ZM55.9827 53.4364L52.9858 53.5734C53.0352 54.6556 53.6643 55.6271 54.6316 56.115C55.5989 56.6029 56.7541 56.5314 57.6538 55.9279L55.9827 53.4364ZM62.1949 49.2694L63.8661 51.7608C65.0748 50.9501 65.5272 49.3887 64.9392 48.0574L62.1949 49.2694ZM51.6384 46.3394L48.8915 47.5455C49.1492 48.1323 49.5879 48.6211 50.1435 48.9404L51.6384 46.3394ZM47.2986 36.4559L50.0454 35.2498C49.5669 34.1598 48.4891 33.456 47.2987 33.4559C46.1083 33.4559 45.0305 34.1597 44.5518 35.2496L47.2986 36.4559ZM42.9589 46.3371L44.4532 48.9384C45.009 48.6192 45.4479 48.1303 45.7056 47.5434L42.9589 46.3371ZM38.6111 53.4353L36.94 55.9268C37.8397 56.5302 38.9949 56.6017 39.9622 56.1138C40.9295 55.6259 41.5585 54.6544 41.608 53.5722L38.6111 53.4353ZM32.4 49.2694L29.6558 48.0572C29.0677 49.3886 29.5201 50.9501 30.7289 51.7609L32.4 49.2694ZM47.2986 15.541L50.0429 14.329C49.5629 13.2422 48.4867 12.541 47.2987 12.541C46.1106 12.541 45.0344 13.242 44.5544 14.3288L47.2986 15.541ZM34.6351 114.537L42.3562 80.1197L36.5017 78.8064L28.7806 113.224L34.6351 114.537ZM62.8871 110.881H31.7079V116.881H62.8871V110.881ZM52.233 80.0942L59.9598 114.537L65.8143 113.224L58.0875 78.7809L52.233 80.0942ZM54.5167 82.3677C69.4515 85.6478 80.6404 98.9738 80.6404 114.882H86.6404C86.6404 96.0946 73.4303 80.3787 55.8038 76.5074L54.5167 82.3677ZM80.6404 114.882C80.6404 133.253 65.7234 148.17 47.3522 148.17V154.17C69.0371 154.17 86.6404 136.567 86.6404 114.882H80.6404ZM47.3522 148.17C28.981 148.17 14.064 133.253 14.064 114.882H8.06404C8.06404 136.567 25.6673 154.17 47.3522 154.17V148.17ZM14.064 114.882C14.064 99.0115 25.2001 85.7107 40.0821 82.3911L38.7759 76.535C21.212 80.4529 8.06404 96.1389 8.06404 114.882H14.064ZM33.9625 75.2436L43.492 62.7852L38.7263 59.1399L29.1968 71.5983L33.9625 75.2436ZM6 114.882C6 97.2445 17.0701 82.1608 32.648 76.2243L30.5114 70.6176C12.6868 77.4102 0 94.671 0 114.882H6ZM47.3522 156.234C24.5307 156.234 6 137.704 6 114.882H0C0 141.017 21.217 162.234 47.3522 162.234V156.234ZM88.7044 114.882C88.7044 137.704 70.1738 156.234 47.3522 156.234V162.234C73.4875 162.234 94.7044 141.017 94.7044 114.882H88.7044ZM61.9118 76.1695C77.5656 82.0674 88.7044 97.1899 88.7044 114.882H94.7044C94.7044 94.6085 81.9391 77.3034 64.0272 70.5548L61.9118 76.1695ZM51.1025 62.7855L60.5867 75.1848L65.3524 71.5395L55.8682 59.1402L51.1025 62.7855ZM57.0989 54.9768L51.8306 58.4605L55.14 63.4652L60.4083 59.9816L57.0989 54.9768ZM65.7637 56.1719L59.4954 54.5723L58.0119 60.386L64.2802 61.9856L65.7637 56.1719ZM65.6372 48.3389L62.1935 58.0787L67.8504 60.0787L71.294 50.3389L65.6372 48.3389ZM44.5687 4.24653L65.7368 50.5855L71.1943 48.0924L50.0262 1.75347L44.5687 4.24653ZM28.8581 50.5855L50.0262 4.24653L44.5687 1.75347L23.4006 48.0924L28.8581 50.5855ZM32.4014 58.0787L28.9578 48.3389L23.3009 50.3389L26.7445 60.0787L32.4014 58.0787ZM35.0996 54.5723L28.8312 56.1719L30.3147 61.9856L36.5831 60.386L35.0996 54.5723ZM42.7638 58.4602L37.496 54.9768L34.1866 59.9816L39.4544 63.4649L42.7638 58.4602ZM44.9142 54.6953L47.9878 58.7136L52.7535 55.0683L49.68 51.05L44.9142 54.6953ZM46.6059 58.7141L49.68 54.6953L44.9142 51.05L41.8402 55.0689L46.6059 58.7141ZM39.9497 53.8332C39.9497 55.8598 40.7792 57.6971 42.1072 59.0183L46.3389 54.7647C46.0933 54.5204 45.9497 54.1946 45.9497 53.8332H39.9497ZM47.2963 46.5088C43.2556 46.5088 39.9497 49.7756 39.9497 53.8332H45.9497C45.9497 53.1184 46.5401 52.5088 47.2963 52.5088V46.5088ZM54.6441 53.8332C54.6441 49.7751 51.3378 46.5088 47.2963 46.5088V52.5088C48.0542 52.5088 48.6441 53.1188 48.6441 53.8332H54.6441ZM52.4871 59.0171C53.8141 57.6963 54.6441 55.8596 54.6441 53.8332H48.6441C48.6441 54.1931 48.5009 54.5192 48.2543 54.7647L52.4871 59.0171ZM57.6538 55.9279L63.8661 51.7608L60.5237 46.778L54.3115 50.945L57.6538 55.9279ZM50.1435 48.9404C51.7863 49.8845 52.8959 51.6055 52.9858 53.5734L58.9795 53.2995C58.7921 49.1976 56.4777 45.6604 53.1332 43.7383L50.1435 48.9404ZM44.5517 37.6621L48.8915 47.5455L54.3852 45.1332L50.0454 35.2498L44.5517 37.6621ZM45.7056 47.5434L50.0453 37.6623L44.5518 35.2496L40.2121 45.1307L45.7056 47.5434ZM41.608 53.5722C41.6978 51.6047 42.8084 49.8832 44.4532 48.9384L41.4645 43.7357C38.1198 45.6571 35.8017 49.1938 35.6142 53.2984L41.608 53.5722ZM30.7289 51.7609L36.94 55.9268L40.2822 50.9438L34.0711 46.7779L30.7289 51.7609ZM44.5544 14.3288L29.6558 48.0572L35.1442 50.4816L50.0428 16.7532L44.5544 14.3288ZM64.9392 48.0574L50.0429 14.329L44.5543 16.753L59.4506 50.4814L64.9392 48.0574Z" fill="#002520" mask="url(#path-1-outside-1)"/>
<circle cx="47.3528" cy="114.889" r="37.2962" fill="#FF9900"/>
</svg>
