<svg width="103" height="40" viewBox="0 0 103 40" fill="none" xmlns="http://www.w3.org/2000/svg">
<rect width="40" height="40" rx="20" fill="#FFC107"/>
<path d="M57.0391 25.1758H64.5039V28H53.5234V10.9375H57.0391V25.1758ZM70.1228 28H66.7244V15.3203H70.1228V28ZM66.5252 12.0391C66.5252 11.5312 66.6931 11.1133 67.0291 10.7852C67.3728 10.457 67.8377 10.293 68.4236 10.293C69.0017 10.293 69.4627 10.457 69.8064 10.7852C70.1502 11.1133 70.322 11.5312 70.322 12.0391C70.322 12.5547 70.1462 12.9766 69.7947 13.3047C69.4509 13.6328 68.9939 13.7969 68.4236 13.7969C67.8533 13.7969 67.3923 13.6328 67.0408 13.3047C66.697 12.9766 66.5252 12.5547 66.5252 12.0391ZM79.7495 22.0586H73.1519V19.3281H79.7495V22.0586ZM83.6341 28V17.8047H81.7473V15.3203H83.6341V14.2422C83.6341 12.8203 84.0403 11.7188 84.8528 10.9375C85.6731 10.1484 86.8177 9.75391 88.2864 9.75391C88.7552 9.75391 89.3294 9.83203 90.0091 9.98828L89.9739 12.6133C89.6927 12.543 89.3489 12.5078 88.9427 12.5078C87.6692 12.5078 87.0325 13.1055 87.0325 14.3008V15.3203H89.552V17.8047H87.0325V28H83.6341ZM97.1045 28.2344C95.2452 28.2344 93.7295 27.6641 92.5577 26.5234C91.3936 25.3828 90.8116 23.8633 90.8116 21.9648V21.6367C90.8116 20.3633 91.0577 19.2266 91.5498 18.2266C92.042 17.2188 92.7373 16.4453 93.6358 15.9062C94.542 15.3594 95.5733 15.0859 96.7295 15.0859C98.4639 15.0859 99.8272 15.6328 100.819 16.7266C101.819 17.8203 102.319 19.3711 102.319 21.3789V22.7617H94.2452C94.3545 23.5898 94.6827 24.2539 95.2295 24.7539C95.7842 25.2539 96.4834 25.5039 97.3272 25.5039C98.6319 25.5039 99.6514 25.0312 100.386 24.0859L102.05 25.9492C101.542 26.668 100.855 27.2305 99.9873 27.6367C99.1202 28.0352 98.1592 28.2344 97.1045 28.2344ZM96.7178 17.8281C96.0459 17.8281 95.4991 18.0547 95.0772 18.5078C94.6631 18.9609 94.3975 19.6094 94.2803 20.4531H98.9912V20.1836C98.9756 19.4336 98.7725 18.8555 98.3819 18.4492C97.9912 18.0352 97.4366 17.8281 96.7178 17.8281Z" fill="#FFC107"/>
</svg>
