<svg width="504" height="657" viewBox="0 0 504 657" fill="none" xmlns="http://www.w3.org/2000/svg">
<path fill-rule="evenodd" clip-rule="evenodd" d="M317.569 495.385C296.662 501.004 274.681 504 252 504C229.319 504 207.338 501.004 186.431 495.385L177 626H327L317.569 495.385Z" fill="#002520"/>
<ellipse cx="252" cy="644.5" rx="205" ry="12.5" fill="#F6F6F6"/>
<rect x="217" y="493" width="70" height="129" fill="#467972"/>
<rect x="132" y="622" width="240" height="23" fill="#002520"/>
<path fill-rule="evenodd" clip-rule="evenodd" d="M504 252C504 391.176 391.176 504 252 504C112.824 504 0 391.176 0 252C0 112.824 112.824 0 252 0C391.176 0 504 112.824 504 252ZM488.881 252C488.881 382.826 382.826 488.881 252 488.881C121.175 488.881 15.1201 382.826 15.1201 252C15.1201 121.175 121.175 15.1201 252 15.1201C382.826 15.1201 488.881 121.175 488.881 252Z" fill="#002520"/>
<path fill-rule="evenodd" clip-rule="evenodd" d="M267.729 19.2233C268.693 18.259 268.693 16.6924 267.729 15.7281L253.749 1.74758C252.784 0.78328 251.218 0.783267 250.253 1.74757L236.273 15.7281C235.309 16.6924 235.309 18.259 236.273 19.2233L250.253 33.2038C251.218 34.1681 252.784 34.1681 253.749 33.2038L267.729 19.2233Z" fill="#184D47"/>
<path fill-rule="evenodd" clip-rule="evenodd" d="M58.4728 121.991C58.1199 120.674 56.7632 119.891 55.446 120.244L36.3482 125.361C35.0309 125.714 34.2476 127.071 34.6006 128.388L39.7178 147.486C40.0708 148.803 41.4274 149.586 42.7447 149.233L61.8425 144.116C63.1597 143.763 63.943 142.406 63.5901 141.089L58.4728 121.991Z" fill="#184D47"/>
<path fill-rule="evenodd" clip-rule="evenodd" d="M42.7447 354.8C41.4274 354.447 40.0708 355.23 39.7178 356.548L34.6006 375.645C34.2476 376.963 35.0309 378.319 36.3482 378.672L55.446 383.79C56.7632 384.143 58.1199 383.359 58.4729 382.042L63.5901 362.944C63.943 361.627 63.1598 360.27 61.8425 359.917L42.7447 354.8Z" fill="#184D47"/>
<path fill-rule="evenodd" clip-rule="evenodd" d="M236.273 484.81C235.309 485.774 235.309 487.341 236.273 488.305L250.253 502.286C251.218 503.25 252.784 503.25 253.749 502.286L267.729 488.305C268.693 487.341 268.693 485.774 267.729 484.81L253.749 470.83C252.784 469.865 251.218 469.865 250.253 470.83L236.273 484.81Z" fill="#184D47"/>
<path fill-rule="evenodd" clip-rule="evenodd" d="M446.02 382.042C446.373 383.359 447.73 384.143 449.047 383.79L468.145 378.672C469.462 378.319 470.246 376.963 469.893 375.645L464.775 356.548C464.422 355.23 463.066 354.447 461.748 354.8L442.651 359.917C441.333 360.27 440.55 361.627 440.903 362.944L446.02 382.042Z" fill="#184D47"/>
<path fill-rule="evenodd" clip-rule="evenodd" d="M461.748 149.233C463.066 149.586 464.422 148.803 464.775 147.486L469.893 128.388C470.246 127.071 469.462 125.714 468.145 125.361L449.047 120.244C447.73 119.891 446.373 120.674 446.02 121.991L440.903 141.089C440.55 142.406 441.333 143.763 442.651 144.116L461.748 149.233Z" fill="#184D47"/>
</svg>
