<svg width="32" height="32" viewBox="0 0 32 32" fill="none" xmlns="http://www.w3.org/2000/svg">
<path d="M26.6666 8.00001H23.76C23.9066 7.58667 24 7.13334 24 6.66667C24 4.45334 22.2133 2.66667 20 2.66667C18.6 2.66667 17.3866 3.38667 16.6666 4.46667L16 5.36001L15.3333 4.45334C14.6133 3.38667 13.4 2.66667 12 2.66667C9.78663 2.66667 7.99996 4.45334 7.99996 6.66667C7.99996 7.13334 8.09329 7.58667 8.23996 8.00001H5.33329C3.85329 8.00001 2.67996 9.18667 2.67996 10.6667L2.66663 25.3333C2.66663 26.8133 3.85329 28 5.33329 28H26.6666C28.1466 28 29.3333 26.8133 29.3333 25.3333V10.6667C29.3333 9.18667 28.1466 8.00001 26.6666 8.00001ZM20 5.33334C20.7333 5.33334 21.3333 5.93334 21.3333 6.66667C21.3333 7.40001 20.7333 8.00001 20 8.00001C19.2666 8.00001 18.6666 7.40001 18.6666 6.66667C18.6666 5.93334 19.2666 5.33334 20 5.33334ZM12 5.33334C12.7333 5.33334 13.3333 5.93334 13.3333 6.66667C13.3333 7.40001 12.7333 8.00001 12 8.00001C11.2666 8.00001 10.6666 7.40001 10.6666 6.66667C10.6666 5.93334 11.2666 5.33334 12 5.33334ZM26.6666 25.3333H5.33329V22.6667H26.6666V25.3333ZM26.6666 18.6667H5.33329V10.6667H12.1066L9.33329 14.44L11.4933 16L14.6666 11.68L16 9.86667L17.3333 11.68L20.5066 16L22.6666 14.44L19.8933 10.6667H26.6666V18.6667Z" fill="#002520"/>
</svg>
