<svg width="32" height="32" viewBox="0 0 32 32" fill="none" xmlns="http://www.w3.org/2000/svg">
<path d="M20.6666 14.6667C21.7712 14.6667 22.6666 13.7712 22.6666 12.6667C22.6666 11.5621 21.7712 10.6667 20.6666 10.6667C19.5621 10.6667 18.6666 11.5621 18.6666 12.6667C18.6666 13.7712 19.5621 14.6667 20.6666 14.6667Z" fill="#002520"/>
<path d="M11.3334 14.6667C12.4379 14.6667 13.3334 13.7712 13.3334 12.6667C13.3334 11.5621 12.4379 10.6667 11.3334 10.6667C10.2288 10.6667 9.33337 11.5621 9.33337 12.6667C9.33337 13.7712 10.2288 14.6667 11.3334 14.6667Z" fill="#002520"/>
<path d="M15.9866 2.66667C8.62663 2.66667 2.66663 8.64001 2.66663 16C2.66663 23.36 8.62663 29.3333 15.9866 29.3333C23.36 29.3333 29.3333 23.36 29.3333 16C29.3333 8.64001 23.36 2.66667 15.9866 2.66667ZM16 26.6667C10.1066 26.6667 5.33329 21.8933 5.33329 16C5.33329 10.1067 10.1066 5.33334 16 5.33334C21.8933 5.33334 26.6666 10.1067 26.6666 16C26.6666 21.8933 21.8933 26.6667 16 26.6667ZM16 22C16.9733 22 17.8533 22.2533 18.6266 22.7067C18.7866 22.52 19.7733 21.4 19.9733 21.1867C18.84 20.44 17.48 20 16 20C14.52 20 13.16 20.44 12.0133 21.1733C13.3066 22.6267 12.0266 21.2 13.36 22.6933C14.1466 22.2533 15.0266 22 16 22Z" fill="#002520"/>
<path d="M24 17.3333C24 18.0697 23.403 18.6667 22.6666 18.6667C21.9303 18.6667 21.3333 18.0697 21.3333 17.3333C21.3333 16.597 22.6666 14.6667 22.6666 14.6667C22.6666 14.6667 24 16.597 24 17.3333Z" fill="#002520"/>
</svg>
