<svg width="32" height="32" viewBox="0 0 32 32" fill="none" xmlns="http://www.w3.org/2000/svg">
<path d="M16 9.33333C8.64002 9.33333 2.66669 12.32 2.66669 16C2.66669 18.9867 6.58669 21.5067 12 22.36V26.6667L17.3334 21.3333L12 16V19.64C7.80002 18.8933 5.33335 17.1067 5.33335 16C5.33335 14.5867 9.38669 12 16 12C22.6134 12 26.6667 14.5867 26.6667 16C26.6667 16.9733 24.72 18.52 21.3334 19.3733V22.1067C26.04 21.08 29.3334 18.7333 29.3334 16C29.3334 12.32 23.36 9.33333 16 9.33333V9.33333Z" fill="#002520"/>
</svg>
