<svg width="32" height="32" viewBox="0 0 32 32" fill="none" xmlns="http://www.w3.org/2000/svg">
<path d="M20.6666 14.6667C21.7712 14.6667 22.6666 13.7712 22.6666 12.6667C22.6666 11.5621 21.7712 10.6667 20.6666 10.6667C19.5621 10.6667 18.6666 11.5621 18.6666 12.6667C18.6666 13.7712 19.5621 14.6667 20.6666 14.6667Z" fill="#002520"/>
<path d="M11.3334 14.6667C12.4379 14.6667 13.3334 13.7712 13.3334 12.6667C13.3334 11.5621 12.4379 10.6667 11.3334 10.6667C10.2288 10.6667 9.33337 11.5621 9.33337 12.6667C9.33337 13.7712 10.2288 14.6667 11.3334 14.6667Z" fill="#002520"/>
<path d="M15.9866 2.66667C8.62663 2.66667 2.66663 8.64001 2.66663 16C2.66663 23.36 8.62663 29.3333 15.9866 29.3333C23.36 29.3333 29.3333 23.36 29.3333 16C29.3333 8.64001 23.36 2.66667 15.9866 2.66667ZM16 26.6667C10.1066 26.6667 5.33329 21.8933 5.33329 16C5.33329 10.1067 10.1066 5.33334 16 5.33334C21.8933 5.33334 26.6666 10.1067 26.6666 16C26.6666 21.8933 21.8933 26.6667 16 26.6667ZM16 18.6667C12.8933 18.6667 10.24 20.6 9.17329 23.3333H11.4C12.32 21.7467 14.0266 20.6667 16 20.6667C17.9733 20.6667 19.6666 21.7467 20.6 23.3333H22.8266C21.76 20.6 19.1066 18.6667 16 18.6667V18.6667Z" fill="#002520"/>
</svg>
