<svg width="24" height="24" viewBox="0 0 24 24" fill="none" xmlns="http://www.w3.org/2000/svg">
<path fill-rule="evenodd" clip-rule="evenodd" d="M12.0216 0.0900879C5.40733 0.0900879 0.0438232 5.54404 0.0438232 12.2724C0.0438232 17.6549 3.47582 22.2214 8.23496 23.8323C8.83358 23.945 9.05334 23.568 9.05334 23.2462C9.05334 22.9557 9.04224 21.9961 9.03708 20.9781C5.70485 21.7151 5.00171 19.5407 5.00171 19.5407C4.45685 18.1326 3.67179 17.7582 3.67179 17.7582C2.58505 17.0021 3.75371 17.0176 3.75371 17.0176C4.95648 17.1034 5.58981 18.273 5.58981 18.273C6.6581 20.1355 8.39186 19.597 9.07536 19.2857C9.18286 18.4986 9.49328 17.9607 9.83582 17.6567C7.17539 17.3487 4.3787 16.3041 4.3787 11.6361C4.3787 10.306 4.8466 9.21928 5.61281 8.36613C5.48845 8.05909 5.07847 6.82023 5.72885 5.14218C5.72885 5.14218 6.73467 4.81476 9.02359 6.39093C9.97903 6.12101 11.0037 5.98564 12.0216 5.981C13.0395 5.98564 14.065 6.12101 15.0222 6.39093C17.3084 4.81476 18.3128 5.14218 18.3128 5.14218C18.9647 6.82023 18.5546 8.05909 18.4302 8.36613C19.1982 9.21928 19.6629 10.306 19.6629 11.6361C19.6629 16.3152 16.8609 17.3454 14.1937 17.647C14.6233 18.0251 15.0061 18.7665 15.0061 19.9031C15.0061 21.5329 14.9923 22.8448 14.9923 23.2462C14.9923 23.5704 15.2079 23.9503 15.815 23.8307C20.5716 22.218 23.9992 17.6531 23.9992 12.2724C23.9992 5.54404 18.6365 0.0900879 12.0216 0.0900879Z" fill="white"/>
<path fill-rule="evenodd" clip-rule="evenodd" d="M4.58042 17.5813C4.55404 17.642 4.46042 17.6599 4.37513 17.6184C4.28825 17.5786 4.23946 17.4961 4.26762 17.4354C4.29341 17.3731 4.38723 17.3559 4.47391 17.3973C4.56098 17.4372 4.61057 17.5205 4.58042 17.5813Z" fill="white"/>
<path fill-rule="evenodd" clip-rule="evenodd" d="M5.06558 18.1316C5.00845 18.1855 4.89678 18.1605 4.82101 18.0753C4.74267 17.9904 4.72799 17.8768 4.78591 17.8221C4.84481 17.7683 4.95311 17.7935 5.03166 17.8784C5.11 17.9644 5.12528 18.0771 5.06558 18.1316Z" fill="white"/>
<path fill-rule="evenodd" clip-rule="evenodd" d="M5.53784 18.8332C5.46445 18.8851 5.34445 18.8365 5.27027 18.7281C5.19688 18.6198 5.19688 18.4899 5.27186 18.4378C5.34624 18.3858 5.46445 18.4326 5.53963 18.5401C5.61282 18.6501 5.61281 18.7802 5.53784 18.8332Z" fill="white"/>
<path fill-rule="evenodd" clip-rule="evenodd" d="M6.18485 19.5111C6.1192 19.5847 5.97936 19.5649 5.87701 19.4645C5.77229 19.3662 5.74313 19.2268 5.80898 19.1532C5.87543 19.0794 6.01606 19.1001 6.1192 19.1998C6.22313 19.2978 6.25486 19.4383 6.18485 19.5111Z" fill="white"/>
<path fill-rule="evenodd" clip-rule="evenodd" d="M7.07741 19.9047C7.04845 20.0001 6.91377 20.0435 6.7781 20.0029C6.64263 19.9612 6.55397 19.8494 6.58134 19.753C6.60951 19.6569 6.74478 19.6117 6.88144 19.6551C7.01672 19.6967 7.10558 19.8076 7.07741 19.9047Z" fill="white"/>
<path fill-rule="evenodd" clip-rule="evenodd" d="M8.05764 19.9777C8.06101 20.0782 7.94597 20.1615 7.80356 20.1631C7.66035 20.1665 7.54452 20.0852 7.54293 19.9864C7.54293 19.8849 7.65539 19.8024 7.7986 19.8C7.94101 19.7971 8.05764 19.8778 8.05764 19.9777Z" fill="white"/>
<path fill-rule="evenodd" clip-rule="evenodd" d="M8.96984 19.8197C8.9869 19.9178 8.88792 20.0184 8.7465 20.0451C8.60746 20.0711 8.47873 20.0106 8.46108 19.9133C8.44382 19.8129 8.54458 19.7122 8.68343 19.6862C8.82505 19.6612 8.95179 19.7201 8.96984 19.8197Z" fill="white"/>
</svg>
