<svg width="24" height="24" viewBox="0 0 24 24" fill="none" xmlns="http://www.w3.org/2000/svg">
<rect x="6" y="9" width="12" height="11" rx="0.2" fill="#2D2D2D"/>
<path fill-rule="evenodd" clip-rule="evenodd" d="M12 9.80801C13.1046 9.80801 14 8.76335 14 7.47469C14 6.41577 12.6495 3.94605 12.168 3.09911C12.0929 2.96696 11.9071 2.96696 11.832 3.09911C11.3505 3.94605 10 6.41577 10 7.47469C10 8.76272 10.8946 9.80699 11.9984 9.80801C11.4468 9.80655 11 9.06092 11 8.14135C11 7.46839 11.5345 5.9977 11.822 5.25545C11.8863 5.08933 12.1137 5.08933 12.178 5.25545C12.4655 5.9977 13 7.46839 13 8.14135C13 9.06182 12.5523 9.80801 12 9.80801Z" fill="#2D2D2D"/>
<path d="M6.2 20.5C6.08954 20.5 6 20.5895 6 20.7V21C6 21.5523 6.44772 22 7 22H17C17.5523 22 18 21.5523 18 21V20.7C18 20.5895 17.9105 20.5 17.8 20.5H6.2Z" fill="#2D2D2D"/>
</svg>
