<svg width="24" height="24" viewBox="0 0 24 24" fill="none" xmlns="http://www.w3.org/2000/svg">
<path fill-rule="evenodd" clip-rule="evenodd" d="M9.16809 4H14.9461H20.7241C20.85 4 20.9453 4.11155 20.9212 4.23518C20.0748 8.58602 18.566 17.6622 18.9602 21.001V21.8637C18.9602 21.9741 18.8707 22.0635 18.7602 22.0635H14.9461H11.4396L13.4884 8.74628C13.5071 8.62513 13.4133 8.51587 13.2908 8.51587H9.7391C9.46835 6.88576 9.19617 5.39312 8.97091 4.23518C8.94686 4.11155 9.04213 4 9.16809 4ZM10.9581 21.8939C10.9557 21.9092 10.9517 21.9239 10.9461 21.9377C10.9461 21.9377 10.9461 21.9376 10.9461 21.9375C10.9161 22.0122 10.8432 22.0635 10.7598 22.0635H6.08648C5.98742 22.0635 5.90317 21.9912 5.88811 21.8933L3.94281 9.24886C3.9241 9.12728 4.01817 9.01763 4.14118 9.01763H12.7051C12.7053 9.01763 12.7056 9.01763 12.7058 9.01763H12.7059C12.8285 9.01763 12.9222 9.12689 12.9036 9.24805L12.9034 9.24886L10.9581 21.8933L10.9581 21.8939Z" fill="#FFC107"/>
</svg>
