<svg width="24" height="24" viewBox="0 0 24 24" fill="none" xmlns="http://www.w3.org/2000/svg">
<path d="M17.761 12.2449C17.2816 12.1625 16.8172 12.0502 16.3805 11.9111C13.18 10.8917 11.3708 8.41495 10.7755 5.22656C10.719 4.9245 10.259 4.92446 10.2025 5.22656C9.51063 8.93147 7.20813 11.5515 3.23682 12.2496C2.92099 12.3051 2.92107 12.7362 3.237 12.7916C7.17164 13.4809 9.51444 16.096 10.2039 19.7714C10.2473 20.0029 10.5054 20.0041 10.4907 19.9987C10.6318 19.9986 10.7526 19.9024 10.777 19.7708C11.128 17.8755 12.1135 15.3005 14.8154 13.797C15.6785 13.3172 16.6698 12.9775 17.7617 12.7872C17.8999 12.7631 18.0002 12.6489 18 12.5158C17.9998 12.3827 17.8993 12.2687 17.761 12.2449Z" fill="#2D2D2D"/>
<path d="M20.732 5.33781C19.7061 4.99757 19.033 4.23308 18.7052 3.18484C18.6461 2.99589 18.447 2.998 18.4545 3.00058C18.3397 3.00058 18.2382 3.07519 18.2039 3.18468C17.8859 4.1998 17.2204 4.97941 16.1771 5.33679C15.9411 5.41761 15.9409 5.75285 16.1771 5.83375C17.2142 6.18878 17.8837 6.96277 18.2042 7.98687C18.2635 8.17625 18.4624 8.17351 18.4553 8.17105C18.5703 8.17085 18.6718 8.09585 18.7058 7.98605C19.0993 6.71351 19.8917 6.27937 19.9521 6.21964C20.5944 5.77949 20.9124 5.90464 20.912 5.58675C20.9118 5.47363 20.8393 5.37339 20.732 5.33781Z" fill="#2D2D2D"/>
<path d="M17.8535 18.8082C17.018 18.545 16.4699 17.9537 16.2029 17.143C16.1548 16.9968 15.9927 16.9985 15.9988 17.0004C15.9053 17.0004 15.8226 17.0582 15.7947 17.1428C15.5357 17.928 14.9938 18.531 14.1442 18.8074C13.952 18.8699 13.9518 19.1292 14.1442 19.1918C14.9887 19.4664 15.5339 20.065 15.795 20.8571C15.8433 21.0036 16.0052 21.0015 15.9994 20.9996C16.0931 20.9994 16.1758 20.9414 16.2034 20.8565C16.5239 19.8722 17.1691 19.5364 17.2183 19.4902C17.7414 19.1498 18.0003 19.2466 18 19.0007C17.9998 18.9132 17.9408 18.8357 17.8535 18.8082Z" fill="#2D2D2D"/>
</svg>
