<svg width="32" height="32" viewBox="0 0 32 32" fill="none" xmlns="http://www.w3.org/2000/svg">
<path d="M15.7334 14.5333C12.7068 13.7467 11.7334 12.9333 11.7334 11.6667C11.7334 10.2133 13.0801 9.2 15.3334 9.2C17.7068 9.2 18.5868 10.3333 18.6668 12H21.6134C21.5201 9.70667 20.1201 7.6 17.3334 6.92V4H13.3334V6.88C10.7468 7.44 8.66676 9.12 8.66676 11.6933C8.66676 14.7733 11.2134 16.3067 14.9334 17.2C18.2668 18 18.9334 19.1733 18.9334 20.4133C18.9334 21.3333 18.2801 22.8 15.3334 22.8C12.5868 22.8 11.5068 21.5733 11.3601 20H8.42676C8.58676 22.92 10.7734 24.56 13.3334 25.1067V28H17.3334V25.1333C19.9334 24.64 22.0001 23.1333 22.0001 20.4C22.0001 16.6133 18.7601 15.32 15.7334 14.5333Z" fill="#002520"/>
</svg>
