<svg width="24" height="24" viewBox="0 0 24 24" fill="none" xmlns="http://www.w3.org/2000/svg">
<path d="M12.2535 15C12.2535 15 15.9447 7.61069 7.76608 2.12253C7.66895 2.05735 7.53736 2.08212 7.4855 2.18697C6.77888 3.61562 2.65159 12.8077 12.2535 15Z" fill="#2D2D2D"/>
<path d="M17.4764 15H6.52357C6.23437 15 6 14.858 6 14.6829V13.3171C6 13.142 6.23443 13 6.52357 13H17.4764C17.7656 13 18 13.142 18 13.3171V14.6829C18 14.858 17.7656 15 17.4764 15Z" fill="#2D2D2D"/>
<path d="M17 15L16.7902 16.495L16.2512 20.3317C16.1175 21.284 15.1847 22 14.0777 22H9.92233C8.81529 22 7.88245 21.284 7.74879 20.3317L7 15H17Z" fill="#2D2D2D"/>
<path fill-rule="evenodd" clip-rule="evenodd" d="M13.1995 13.8383C19.6815 12.9332 17.977 6.31027 17.6126 5.11099C17.5805 5.00544 17.4644 4.95586 17.3607 4.99358C15.3047 5.74164 13.9459 6.73934 13.0576 7.79699C13.3914 8.77561 13.542 9.72387 13.5764 10.5997C13.6275 11.9003 13.4223 13.0266 13.1995 13.8383Z" fill="#2D2D2D"/>
</svg>
