<svg width="24" height="24" viewBox="0 0 24 24" fill="none" xmlns="http://www.w3.org/2000/svg">
<path d="M8.96213 2.15149C8.98439 2.06246 9.06438 2 9.15616 2H14.8438C14.9356 2 15.0156 2.06246 15.0379 2.15149L17.9379 13.7515C17.9694 13.8777 17.874 14 17.7438 14H6.25616C6.12604 14 6.03057 13.8777 6.06213 13.7515L8.96213 2.15149Z" fill="#2D2D2D"/>
<path fill-rule="evenodd" clip-rule="evenodd" d="M16 14H15.5V16.5427C15.2087 16.6456 15 16.9234 15 17.25C15 17.6642 15.3358 18 15.75 18C16.1642 18 16.5 17.6642 16.5 17.25C16.5 16.9234 16.2913 16.6456 16 16.5427V14Z" fill="#2D2D2D"/>
<path fill-rule="evenodd" clip-rule="evenodd" d="M11.177 14.5C11.0692 14.5 10.9808 14.5847 10.9771 14.6925C10.9304 16.0351 10.836 18.3384 10.7022 19C10.605 19.4808 10.5545 19.7304 10.4172 19.9156C10.2688 20.1156 10.0192 20.2404 9.50003 20.5C8.92176 20.7891 8.13449 21.2699 7.55367 21.64C7.38679 21.7464 7.4627 22 7.66058 22H12H16.3395C16.5374 22 16.6133 21.7464 16.4464 21.64C15.8656 21.2699 15.0783 20.7891 14.5 20.5C13.9808 20.2404 13.7312 20.1156 13.5829 19.9156C13.4455 19.7304 13.3951 19.4808 13.2978 19C13.1641 18.3384 13.0697 16.0351 13.023 14.6925C13.0192 14.5847 12.9309 14.5 12.823 14.5H11.177Z" fill="#2D2D2D"/>
</svg>
