<svg width="24" height="24" viewBox="0 0 24 24" fill="none" xmlns="http://www.w3.org/2000/svg">
<path fill-rule="evenodd" clip-rule="evenodd" d="M18.8852 12.8775C18.9199 12.5962 18.943 12.3038 18.943 12C18.943 11.6962 18.9199 11.4038 18.8736 11.1225L20.8292 9.6375C21.0028 9.5025 21.0491 9.255 20.9449 9.06375L19.0935 5.9475C18.9777 5.745 18.7347 5.6775 18.5264 5.745L16.2237 6.645C15.7377 6.285 15.2285 5.9925 14.6615 5.7675L14.3143 3.3825C14.2796 3.1575 14.0829 3 13.8515 3H10.1485C9.91709 3 9.73195 3.1575 9.69723 3.3825L9.35008 5.7675C8.78307 5.9925 8.26234 6.29625 7.7879 6.645L5.48513 5.745C5.27684 5.66625 5.03384 5.745 4.91812 5.9475L3.06665 9.06375C2.95093 9.26625 2.99722 9.5025 3.18236 9.6375L5.13798 11.1225C5.0917 11.4038 5.05698 11.7075 5.05698 12C5.05698 12.2925 5.08012 12.5962 5.12641 12.8775L3.17079 14.3625C2.99722 14.4975 2.95093 14.745 3.05508 14.9362L4.90655 18.0525C5.02226 18.255 5.26527 18.3225 5.47356 18.255L7.77633 17.355C8.26234 17.715 8.7715 18.0075 9.33851 18.2325L9.68566 20.6175C9.73195 20.8425 9.91709 21 10.1485 21H13.8515C14.0829 21 14.2796 20.8425 14.3028 20.6175L14.6499 18.2325C15.2169 18.0075 15.7377 17.7038 16.2121 17.355L18.5149 18.255C18.7232 18.3338 18.9662 18.255 19.0819 18.0525L20.9334 14.9362C21.0491 14.7337 21.0028 14.4975 20.8176 14.3625L18.8852 12.8775ZM12 16.5C14.4853 16.5 16.5 14.4853 16.5 12C16.5 9.51472 14.4853 7.5 12 7.5C9.51472 7.5 7.5 9.51472 7.5 12C7.5 14.4853 9.51472 16.5 12 16.5ZM12 17C14.7614 17 17 14.7614 17 12C17 9.23858 14.7614 7 12 7C9.23858 7 7 9.23858 7 12C7 14.7614 9.23858 17 12 17ZM12.1793 9.3634C12.106 9.21475 11.894 9.21475 11.8207 9.3634L11.1649 10.6922C11.1357 10.7512 11.0794 10.7921 11.0143 10.8016L9.54786 11.0147C9.38382 11.0385 9.31832 11.2401 9.43702 11.3558L10.4981 12.3901C10.5453 12.4361 10.5668 12.5023 10.5556 12.5672L10.3051 14.0276C10.2771 14.191 10.4486 14.3156 10.5953 14.2385L11.9069 13.5489C11.9652 13.5183 12.0348 13.5183 12.0931 13.5489L13.4047 14.2385C13.5514 14.3156 13.7229 14.191 13.6949 14.0276L13.4444 12.5672C13.4332 12.5023 13.4547 12.4361 13.5019 12.3901L14.563 11.3558C14.6817 11.2401 14.6162 11.0385 14.4521 11.0147L12.9857 10.8016C12.9206 10.7921 12.8643 10.7512 12.8351 10.6922L12.1793 9.3634Z" fill="#2D2D2D"/>
</svg>
